<svg xmlns="http://www.w3.org/2000/svg" width="2000" viewBox="0 0 1500 1500" height="2000" version="1.0"><defs><clipPath id="prefix__a"><path d="M269.813 209h960.37v819.129h-960.37zm0 0"/></clipPath></defs><g clip-path="url(#prefix__a)"><path fill="#231f20" d="M1019.762 655.96l-1.668-.581c.914.207 1.82.445 2.734.644zM896.508 424.618a26.16 26.16 0 01-6.817-2.535c-3.418-.809-7.03-1.047-10.62-.746-3.075.191-6 .77-9.282 1.2-3.277.362-6.71.276-10.031-.509-6.672-1.613-12.336-5.933-16.492-10.941-4.16-5.066-7.149-10.992-8.246-17.281l-.086-.485.476-.062c6.078-.746 12.106-1.192 18.098-1.485l4.48-.214a33.144 33.144 0 015.02.175c3.484.387 6.933 1.746 9.922 3.598 5.996 3.922 9.453 9.488 12.937 14.063 3.535 4.59 7.04 8.59 12.02 11.003v.016c.023.008.05.008.082.016zm-412.356 512.07c1.668-14.476 3.782-28.808 6.141-43.101 2.828-17.152 5.894-34.254 9.394-51.274l5.458-25.488c2.003-8.465 3.8-16.96 6-25.386 4.195-16.895 8.722-33.731 14.402-50.348-.969 17.531-3.027 34.844-5.547 52.082-1.152 8.644-2.723 17.2-4.113 25.789-1.422 8.035-2.996 16.039-4.528 24.043l2.239 3.437a37.115 37.115 0 00-1.293-1.308c3.222 6.582 5.902 13.34 8.808 20.027 2.938 6.66 5.832 13.332 8.922 19.914 6.117 13.196 12.473 26.274 19.305 39.121 6.91 12.801 13.922 25.567 21.742 37.93 3.883 6.219 7.902 12.3 12.469 18.266.574.714 1.23 1.507 1.89 2.238l1.797 1.953c1.16 1.305 2.254 2.738 3.399 4.145l4.34 5.613 6.394 13.77a420.306 420.306 0 01-68.555-20.485c-18.636-7.313-36.656-16.121-53.964-26.203zm73.852-167.78c10.965-5.473 21.203-12.325 26.351-22.782 3.16-5.617 6.528-11.254 11-16.305 2.235-2.508 4.774-4.875 7.618-6.851 2.82-2.032 6.015-3.399 8.859-4.653 1.43-.629 2.797-1.238 4.09-1.93.492-.23 1.312-.753 1.953-1.113.582-.402 1.145-.738 1.719-1.175 2.343-1.739 4.414-3.907 6.34-6.254 3.796-4.766 6.734-10.371 9.53-16.067-1.35 6.203-3.343 12.34-6.616 18.059a36.024 36.024 0 01-6.18 7.883c-.606.59-1.328 1.176-1.996 1.742-.684.5-1.133.91-2.008 1.484-1.406.938-2.851 1.778-4.234 2.555-5.594 2.996-9.89 6.242-13.551 11-3.664 4.629-6.863 9.86-9.727 15.316-3.097 5.977-7.949 11.418-13.312 15.356-5.465 3.945-11.344 6.988-17.406 9.265-12.106 4.696-24.567 7.06-37 9.532 11.476-5.535 23.535-9.578 34.57-15.063zm-225.39-10.747c.85 14.914 3.562 29.715 7.284 44.77-8.156-13.164-13.628-28.188-16.25-43.72-1.449-7.741-1.964-15.612-2.273-23.44-.191-7.68-.176-15.34-.262-22.997.024-15.316.555-30.601 1.293-45.886.621-15.301 2.035-30.5 2.758-45.907 2.262 7.465 3.211 15.192 4.258 22.832.883 7.668 1.598 15.34 2.043 23.012a680.197 680.197 0 011.246 45.996l-.375 22.95c-.324 7.48-.07 14.925.277 22.39zm729.495-158.77c-.007-.007-.007-.007-.015-.007-.063-.016-.032-.016.015.008zm5.395 12.508a69.251 69.251 0 00-2.223-6.011 29.143 29.143 0 012.223 6.011zm162.617-2.707c-.125-1.16-.855-2.613-1.828-3.421-2.016-1.59-3.492-1.52-4.66-1.653-1.2-.054-2.196.055-3.164.184-7.418 1.324-13.375 4.144-19.492 7l-4.473 2.258c-.54.277-1.484.761-2.043 1-.602.27-1.3.539-2.008.816-2.836 1.059-5.879 1.906-8.945 2.676-12.352 3.004-25.27 4.566-38.156 5.582a425.746 425.746 0 01-38.883 1.328 446.4 446.4 0 01-37.106-1.977c.2-1.367.04-3.191-.336-5.21l.438-.008c.023-5.282-1.438-10.52-4.121-15.118a16.166 16.166 0 00-1.16-1.683c-.461-.508-.793-1.031-1.707-1.461l-.008-.055a7.449 7.449 0 01-.04-.867l.04-1.89.3-7.75c.11-5.192-.023-10.442-.992-15.657-.984-4.933-2.718-10.3-7.086-13.883-2.441-8.375-5.101-16.949-9.375-24.851-4.074-7.64-9.824-14.785-17.5-19.477-.109-5.402-1.722-10.203-3.414-14.906-1.906-5.043-4.234-9.871-6.906-14.523-2.715-4.645-5.66-9.157-9.617-13.196-.906-.969-2.281-2.05-3.188-2.758-1.046-.808-1.77-1.523-2.683-2.421-1.715-1.762-3.281-3.723-4.758-5.77-5.84-8.277-10.383-17.7-14.664-27.156-4.25-9.5-8.137-19.211-12.02-28.946-3.879-9.742-7.722-19.53-11.875-29.242-4.187-9.703-8.53-19.39-14.238-28.644-1.445-2.309-2.992-4.586-4.71-6.782a55.953 55.953 0 00-2.74-3.214l-2.636-2.891-10.535-11.68c-7.031-7.797-14.148-15.562-21.414-23.195-7.27-7.637-14.684-15.148-22.293-22.477-3.797-3.668-7.688-7.25-11.605-10.8-4.036-3.614-7.73-6.813-11.29-10.559-3.597-3.676-7.234-7.68-11.59-11.3a52.475 52.475 0 00-14.718-8.696c-10.668-4.098-21.656-5.137-32.356-5.59-10.82-.34-21.152.047-31.664.04l-31.418.097c-20.937-.05-41.84-.39-62.699-1.367-41.676-2.098-83.265-6.145-123.113-18.106-6.11-1.691-12.113-1.387-17.7-.64-5.609.816-10.968 2.23-16.163 3.953-10.375 3.46-20.133 8.082-29.543 13.195-18.79 10.316-36.16 22.758-52.512 36.305-32.672 27.18-61.14 59.11-85.219 93.976-24.031 34.914-43.308 73.137-56.773 113.324-13.473 40.172-20.95 82.36-21.848 124.68-.46 21.164.668 42.317 3.328 63.32 3.059 20.891 7.617 41.575 13.348 61.856 2.922 10.133 6.203 20.152 9.89 30.023 3.676 9.883 7.457 19.715 11.747 29.348 8.507 19.293 18.527 37.898 29.55 55.898 22.317 35.82 49.723 68.797 82.125 96.301 32.227 27.668 69.078 49.973 108.41 66.258 39.375 16.27 81.5 25.797 123.954 28.543 42.476 2.645 85.199-1.316 126.386-10.988 20.59-4.93 40.805-11.196 60.532-18.63 19.668-7.628 38.902-16.269 57.425-26.202l-.507-1.047c-19.25 8.32-38.758 15.945-58.676 22.21-19.86 6.462-40.067 11.712-60.5 15.626a465.222 465.222 0 01-39.512 6.066c-12.676-25.781-29.453-68.86-36.754-101.414-4.758-21.242-29.613-101.648-32.238-122.332-3.09-24.402-10.66-69.953-17.293-104.605-16.234-8.532-30.656-19.989-43.586-32.567a267.593 267.593 0 01-11.406-11.863l-5.426-6.121c-1.734-1.961-3.61-4.29-4.973-5.504-4.449-4.055-8.207-9.074-10.886-14.441-2.715-5.368-4.368-10.942-5.934-15.954-1.555-5.027-3.176-9.433-5.766-12.554-2.527-3.137-6.226-5.285-10.707-6.715-2.203-.715-4.61-1.25-6.992-1.645l-1.867-.293-1.024-.144c-.515-.086-1.035-.168-1.484-.285-1.86-.453-3.371-1.059-4.816-1.7-5.64-2.628-10.192-5.835-14.703-9.148-8.914-6.691-17.047-14.031-24.84-21.742-7.754-7.742-15.14-15.863-21.82-24.719-3.333-4.445-6.516-9.035-9.297-14.086-1.391-2.523-2.676-5.176-3.743-8.074-1.07-3.05-1.644-5.797-2.199-8.621-1.07-5.656-1.453-11.2-2.027-16.375-.563-5.192-1.41-10.14-2.778-15.031-2.687-9.782-7.253-19.2-12.355-28.372-5.129-9.171-10.938-18.097-17-26.808-1.484-2.168-3.145-4.344-4.7-6.89-1.51-2.493-2.85-5.114-3.933-7.868-2.191-5.496-3.242-11.555-2.922-17.504.64-12.066 6.496-22.691 13.457-31.324 7.067-8.719 15.465-15.961 24.274-22.438 8.828-6.44 18.12-12.136 27.699-17.234 19.195-10.105 39.293-18.23 59.852-24.773 20.543-6.36 41.695-11.864 63.27-12.203-10.747.593-21.274 2.875-31.638 5.55-10.367 2.676-20.586 5.907-30.656 9.543-20.105 7.305-39.664 16.16-58.094 26.825-9.207 5.328-18.183 11.042-26.539 17.5-8.328 6.433-16.152 13.578-22.433 21.742-6.23 8.097-10.883 17.507-11.114 27.14-.136 4.793.809 9.543 2.7 13.989a42.732 42.732 0 003.433 6.441c1.285 2.016 2.93 4.09 4.543 6.313 6.426 8.773 12.59 17.722 18.184 27.18 5.55 9.456 10.531 19.491 13.726 30.413 1.598 5.446 2.637 11.114 3.29 16.594.675 5.488 1.113 10.688 2.113 15.586.5 2.445 1.101 4.957 1.843 6.965.817 2.137 1.891 4.328 3.13 6.496 2.46 4.336 5.449 8.566 8.617 12.672 12.894 16.3 28.164 31.5 44.703 44.008 4.129 3.039 8.488 5.968 12.613 7.843 2.297 1.04 2.937 1.04 6.34 1.54 2.922.468 5.765 1.09 8.68 2.011 5.73 1.762 11.84 5.031 16.12 10.313 4.313 5.234 6.274 11.242 7.926 16.39 1.621 5.246 3.043 10.02 5.188 14.27 2.105 4.254 4.879 7.984 8.355 11.187 2.59 2.446 4.004 4.39 5.84 6.438l5.235 5.965c3.527 3.921 7.136 7.734 10.882 11.418 14.914 14.691 31.848 27.457 50.739 35.668 9.422 4.097 19.336 6.957 29.449 8.148 1.262.172 2.531.27 3.797.387 1.207.066 2.804.215 3.144.152 1.074-.098 2.242-.668 3.528-2.074 2.558-2.817 4.504-7.606 5.925-12.356 2.868-9.718 4.274-20.285 5.489-30.793 1.191-10.543 2.02-21.238 2.765-31.91 2.828-42.746 4.004-85.68 2.47-128.5-.688-21.402-2.08-42.816-5.122-64.015-1.55-10.586-3.52-21.13-6.3-31.461-2.774-10.309-6.266-20.559-11.93-29.715 6.164 8.84 10.253 18.988 13.605 29.222 3.258 10.297 5.656 20.844 7.644 31.454 3.938 21.23 6.211 42.718 7.774 64.222 2.144 34.117 2.45 68.285 1.621 102.438l7.54 2.023c-.892-.133-1.778-.262-2.669-.418 7.57 3.969 16 5.676 24.024 7.953 8.109 2.035 16.148 4.09 23.941 6.45 7.715 2.507 15.41 5.066 21.828 9.058 1.606.977 3.156 1.965 4.559 3.074.71.547 1.367 1.13 2.02 1.715l2.468 2.215a130.725 130.725 0 0010.312 8.043c7.133 4.91 14.61 9.262 22.52 12.84 7.922 3.48 16.152 6.578 25 7.91 4.41.645 8.96 1.047 13.578.445 4.574-.57 9.324-2.03 13.184-4.972 3.832-2.953 6.422-7.16 7.57-11.45 1.203-4.289 1.336-8.636.914-12.832.059-1.632.082-3.086.09-4.382a752.6 752.6 0 01-4.602-2.383l-4.726-4.145h-.039a67.052 67.052 0 01-10.532-1.152l-1.375-.285-1.628-.395a36.118 36.118 0 01-3.172-1 39.516 39.516 0 01-5.875-2.676c-14.61-8.601-23.883-21.148-32.867-33.128-4.497-6.02-8.665-12.196-13.192-17.97-2.21-2.937-4.57-5.718-7.137-8.288-2.586-2.52-5.433-4.86-9.078-5.957 3.852-.192 7.676 1.476 11.004 3.43 3.375 1.984 6.38 4.456 9.309 6.94 5.726 5.122 10.953 10.618 16.008 16.118 5.164 5.402 10.007 10.969 15.242 15.93 5.156 4.98 10.488 9.718 16.27 12.761 1.429.754 2.859 1.461 4.304 2 .73.278 1.453.508 2.176.715l1.09.278 1.359.3c3.215.723 6.688 1.2 10.055 1.383 6.808.531 13.617-.605 20.68-2.137 7.023-1.613 14.37-3.953 22.32-4.707 3.957-.277 8.03-.128 11.863.848a31.704 31.704 0 0110.516 4.79 40.444 40.444 0 00-7.832-1.423c-.16-.015-.325-.039-.485-.047-.09-.007-.176-.007-.27-.007-.19-.016-.382-.016-.574-.024 22.903 11.797 47.497 20.16 72.606 26.074 25.543 5.942 51.691 9.317 77.945 10.524 26.262 1.062 52.676.508 78.899-5.035 3.28-.762 6.547-1.653 9.836-2.852a42.606 42.606 0 002.535-1.023c.941-.407 1.453-.668 2.367-1.13l4.281-2.128c5.567-2.61 11.54-5.168 16.95-6.121-1.383 1.851-3.29 3.804-5.22 5.613-4.613 4.219-9.667 8.371-14.82 11.77-10.511 6.836-22.507 11.52-34.789 15.156-12.328 3.59-25.07 5.996-37.875 7.996-12.828 1.953-25.77 3.312-38.758 4.375-6.472.488-13.035 1.05-19.445 1.273-6.45.184-12.926-.015-19.398-.484-17.309-1.36-34.485-4.504-51.39-8.816a422.86 422.86 0 01-24.903-7.184 479.579 479.579 0 01-27.27-9.75 469.725 469.725 0 01-40.363-18.082c-1.527-.777-3.074-1.54-4.602-2.328 1.528.797 3.075 1.574 4.602 2.367.922.469 1.836.953 2.77 1.414 1.742.875 3.558 1.77 5.402 2.66a514.55 514.55 0 0032.332 14.45c9.96 35.91 33.906 142.359 9.008 187.746-25.364 46.246-65.391 36.097-73.844 31.585-8.453-4.515-14.664-14.093-8.453-23.687 6.203-9.582 0-21.422-2.813-23.113-2.82-1.7-3.949-6.774 1.121-10.711 5.075-3.961 6.766-12.977-4.511-14.11-11.266-1.12-45.653 15.23-49.04 37.223-3.382 21.996 5.641 72.742 33.825 86.281 28.18 13.524 62.004 26.504 113.86 7.887 51.859-18.613 72.71-56.387 84.554-85.71 11.707-28.99 29.68-75.927 23.547-163.645 5.136-.11 10.191-.364 15.32-.579 13.078-.629 26.176-1.558 39.254-3.097 13.066-1.524 26.117-3.746 38.96-7.211 12.81-3.461 25.54-8.176 37.005-15.57 5.781-3.782 10.867-7.918 15.933-12.473 2.496-2.367 4.957-4.656 7.192-8.012.547-.875 1.101-1.82 1.515-3.226.192-.723.368-1.61.223-2.786"/></g><path fill="#231f20" d="M1200.586 598.79c-.024-.04-.055-.087-.07-.145.023-.04.054.039.07.144zm-128.563 8.773c12.625 3.343 25.547 5.39 38.536 6.628 13.004 1.266 26.113 1.567 39.265.746 13.055-1.156 26.535-2.707 38.863-9.445 3.176-1.898 5.41-3.734 8.102-5.148 1.262-.692 2.691-1.301 3.574-1.407a.784.784 0 00.254-.023c.024.207.024.508-.031.805-.414 2.601-2.129 5.484-3.93 7.98-1.875 2.516-4.054 4.899-6.832 6.63 3.137-.993 5.973-2.923 8.434-5.192 2.426-2.352 4.672-4.852 6.015-8.524.262-.96.594-2.086 0-3.691-.304-.793-1.043-1.578-1.812-1.93a5.087 5.087 0 00-2.074-.5c-2.375-.023-4.02.637-5.703 1.238-3.258 1.207-6.266 3.274-8.801 4.418-5.465 2.43-11.551 3.961-17.738 4.954-6.188 1.062-12.504 1.738-18.86 2.113-12.695.953-25.547.984-38.422.96l-38.84-.612M771.152 178.516c30.336 7.027 59.993 16.722 88.035 29.968 28.122 12.993 54.899 28.91 79.446 47.77 49.336 37.375 90.812 85.176 120.695 139.863 29.965 54.684 48.203 115.945 54.281 179.461 3.641-63.793-9.937-129.16-38.16-187.734-28.097-58.664-70.59-110.746-122.82-150.106-26.2-19.535-54.52-36.273-84.484-49.265-30.028-12.766-61.403-22.477-93.52-27.672-64.043-10.875-130.543-6.238-190.93 14.629 62.73-11.485 126.633-10.547 187.457 3.086"/><path d="M498.904 1226.769v17.39h-18.14l-3.438 20.344h16.89v17.312h-19.765l-5.5 32.485h-19.922l5.484-32.485h-21.156l-5.5 32.485H407.92l5.5-32.485h-15.172v-17.312h18.125l3.359-20.344h-16.89v-17.39h19.843l5.5-32.407h19.938l-5.5 32.407h21.172l5.406-32.407h19.937l-5.422 32.407zm-62.594 37.734h21.078l3.453-20.344H439.67zm0 0M562.97 1316.019c-9.793 0-18.312-2.172-25.562-6.516-7.242-4.352-12.871-11.125-16.89-20.313-4.024-9.187-6.032-20.804-6.032-34.859 0-14.05 2.008-25.672 6.031-34.86 4.02-9.187 9.649-15.952 16.89-20.296 7.25-4.352 15.77-6.531 25.563-6.531 9.844 0 18.383 2.18 25.625 6.53 7.25 4.345 12.883 11.11 16.907 20.298 4.02 9.187 6.03 20.808 6.03 34.86 0 14.054-2.01 25.671-6.03 34.858-4.024 9.188-9.657 15.961-16.907 20.313-7.242 4.344-15.78 6.516-25.625 6.516zm0-20.094c5.352 0 9.832-1.297 13.438-3.89 3.613-2.602 6.39-6.97 8.328-13.095 1.945-6.125 2.922-14.328 2.922-24.609 0-10.281-.977-18.484-2.922-24.61-1.938-6.124-4.715-10.484-8.328-13.077-3.606-2.602-8.086-3.907-13.438-3.907-5.367 0-9.855 1.305-13.468 3.907-3.606 2.593-6.383 6.953-8.329 13.078-1.937 6.125-2.906 14.328-2.906 24.61 0 10.28.969 18.483 2.906 24.608 1.946 6.125 4.723 10.493 8.329 13.094 3.613 2.594 8.101 3.89 13.468 3.89zm0 0M671.74 1316.019c-11.324 0-20.242-2.282-26.75-6.844-6.5-4.57-10.844-10.957-13.031-19.156l18.046-8.125 1.875.406c3.125 9.137 9.688 13.703 19.688 13.703 7.82 0 13.77-3.238 17.844-9.719 4.07-6.476 6.11-16.195 6.11-29.156l-1.642-.578c-2.73 5.2-6.296 9.137-10.703 11.812-4.398 2.68-10.093 4.016-17.093 4.016-7.168 0-13.477-1.582-18.922-4.75-5.438-3.176-9.664-7.703-12.672-13.578-3-5.883-4.5-12.79-4.5-20.719 0-8.258 1.75-15.453 5.25-21.578s8.472-10.836 14.922-14.14c6.457-3.313 13.976-4.97 22.562-4.97 14.82 0 26.399 4.696 34.735 14.079 8.343 9.375 12.515 24.48 12.515 45.312 0 14.336-1.93 26.262-5.781 35.781-3.856 9.512-9.383 16.59-16.578 21.235-7.188 4.648-15.813 6.969-25.875 6.969zm1.64-63.079c6.125 0 10.977-1.8 14.563-5.406 3.582-3.613 5.375-8.484 5.375-14.61 0-6.175-1.766-11.066-5.297-14.671-3.531-3.613-8.414-5.422-14.64-5.422-6.126 0-10.915 1.75-14.36 5.25-3.45 3.5-5.172 8.45-5.172 14.844 0 6.344 1.723 11.265 5.172 14.765 3.445 3.5 8.234 5.25 14.36 5.25zm0 0"/><g><path d="M775.505 1316.019c-12.855 0-23.058-2.72-30.609-8.157-7.543-5.445-12.324-13.144-14.344-23.093l17.97-8.375 1.89.328c2.02 6.625 4.898 11.453 8.64 14.484 3.75 3.031 8.961 4.547 15.64 4.547 6.446 0 11.364-1.5 14.75-4.5 3.395-3.008 5.095-7.383 5.095-13.125 0-5.633-1.684-9.957-5.047-12.969-3.367-3.008-8.297-4.515-14.797-4.515h-18.047v-18.454h15.75c5.352 0 9.613-1.335 12.781-4.015 3.176-2.676 4.766-6.504 4.766-11.485 0-4.925-1.492-8.628-4.469-11.109-2.98-2.488-7.094-3.734-12.344-3.734-5.367 0-10.109 1.261-14.234 3.781-4.125 2.512-7.45 5.898-9.969 10.156l-1.89.328-12.47-14.515c4.22-5.688 9.634-10.266 16.25-13.735 6.614-3.476 14.49-5.218 23.626-5.218 12.57 0 22.164 2.625 28.781 7.875 6.625 5.25 9.938 12.636 9.938 22.156 0 5.742-1.344 10.648-4.032 14.719-2.68 4.074-6.53 7.59-11.562 10.546v1.72c13.844 4.866 20.766 14.71 20.766 29.53 0 7.438-1.59 13.918-4.766 19.438-3.168 5.523-7.953 9.805-14.36 12.844-6.398 3.031-14.296 4.547-23.703 4.547zm0 0M874.763 1316.019c-12.855 0-23.058-2.72-30.61-8.157-7.542-5.445-12.323-13.144-14.343-23.093l17.969-8.375 1.89.328c2.02 6.625 4.899 11.453 8.641 14.484 3.75 3.031 8.961 4.547 15.64 4.547 6.446 0 11.364-1.5 14.75-4.5 3.395-3.008 5.094-7.383 5.094-13.125 0-5.633-1.683-9.957-5.046-12.969-3.368-3.008-8.297-4.515-14.797-4.515h-18.047v-18.454h15.75c5.351 0 9.613-1.335 12.781-4.015 3.176-2.676 4.766-6.504 4.766-11.485 0-4.925-1.492-8.628-4.469-11.109-2.98-2.488-7.094-3.734-12.344-3.734-5.367 0-10.11 1.261-14.234 3.781-4.125 2.512-7.45 5.898-9.969 10.156l-1.89.328-12.47-14.515c4.22-5.688 9.634-10.266 16.25-13.735 6.614-3.476 14.489-5.218 23.626-5.218 12.57 0 22.164 2.625 28.781 7.875 6.625 5.25 9.937 12.636 9.937 22.156 0 5.742-1.343 10.648-4.03 14.719-2.68 4.074-6.532 7.59-11.563 10.546v1.72c13.843 4.866 20.765 14.71 20.765 29.53 0 7.438-1.59 13.918-4.765 19.438-3.168 5.523-7.953 9.805-14.36 12.844-6.398 3.031-14.297 4.547-23.703 4.547zm0 0M930.959 1304.784c0-6.613.722-12.191 2.171-16.734 1.446-4.54 3.813-8.68 7.094-12.422 3.281-3.75 7.93-7.785 13.953-12.11l15.985-11.562c4.375-3.113 7.78-5.816 10.218-8.11 2.438-2.3 4.27-4.706 5.5-7.218 1.227-2.52 1.844-5.395 1.844-8.625 0-4.863-1.48-8.625-4.437-11.281-2.95-2.657-7.375-3.985-13.282-3.985-5.687 0-10.75 1.356-15.187 4.063-4.43 2.71-8.09 6.418-10.984 11.125l-1.563.406-13.031-14.61c4.258-6.343 9.82-11.44 16.687-15.296 6.864-3.852 15.192-5.781 24.985-5.781 8.968 0 16.472 1.48 22.515 4.437 6.04 2.95 10.524 6.98 13.453 12.094 2.926 5.117 4.391 10.98 4.391 17.594 0 5.687-1.195 10.886-3.578 15.593-2.375 4.7-5.672 9.047-9.89 13.047-4.212 3.992-9.594 8.281-16.157 12.875l-14.187 9.922c-4.262 3.063-7.243 5.79-8.938 8.172-1.7 2.375-2.547 5.062-2.547 8.062h54.14v19.86H930.96zm0 0M1025.04 1314.3v-19.61h28.97v-74.64l-1.891-.5c-4.106 1.969-8.14 3.531-12.11 4.687-3.96 1.149-8.48 2.047-13.562 2.703v-20.265c13.281-2.79 24.023-6.895 32.234-12.313h18.781v100.328h25.844v19.61zm0 0"/></g></svg>