<svg xmlns="http://www.w3.org/2000/svg" viewBox="0 0 1500 1500" width="512" height="512">
  <defs>
    <linearGradient id="elephantGradient" x1="0%" y1="0%" x2="100%" y2="100%">
      <stop offset="0%" style="stop-color:#6366f1;stop-opacity:1" />
      <stop offset="100%" style="stop-color:#9333ea;stop-opacity:1" />
    </linearGradient>
    <clipPath id="clip">
      <path d="M 269.8125 209 L 1230.183594 209 L 1230.183594 1028.128906 L 269.8125 1028.128906 Z M 269.8125 209 " clip-rule="nonzero"/>
    </clipPath>
  </defs>
  <g clip-path="url(#clip)">
    <path fill="url(#elephantGradient)" d="M 1019.761719 655.960938 L 1018.09375 655.378906 C 1019.007812 655.585938 1019.914062 655.824219 1020.828125 656.023438 Z M 896.507812 424.617188 C 894.164062 424.105469 891.835938 423.242188 889.691406 422.082031 C 886.273438 421.273438 882.660156 421.035156 879.070312 421.335938 C 875.996094 421.527344 873.070312 422.105469 869.789062 422.535156 C 866.511719 422.898438 863.078125 422.8125 859.757812 422.027344 C 853.085938 420.414062 847.421875 416.09375 843.265625 411.085938 C 839.105469 406.019531 836.117188 400.09375 835.019531 393.804688 L 834.933594 393.320312 L 835.410156 393.257812 C 841.488281 392.511719 847.515625 392.066406 853.507812 391.773438 L 857.988281 391.558594 C 859.449219 391.496094 861.324219 391.535156 863.007812 391.734375 C 866.492188 392.121094 869.941406 393.480469 872.929688 395.332031 C 878.925781 399.253906 882.382812 404.820312 885.867188 409.394531 C 889.402344 413.984375 892.90625 417.984375 897.886719 420.398438 L 897.886719 420.414062 C 897.910156 420.421875 897.9375 420.421875 897.96875 420.429688 Z M 484.152344 936.6875 C 485.820312 922.210938 487.933594 907.878906 490.292969 893.585938 C 493.121094 876.433594 496.1875 859.332031 499.6875 842.3125 L 505.144531 816.824219 C 507.148438 808.359375 508.945312 799.863281 511.144531 791.4375 C 515.339844 774.542969 519.867188 757.707031 525.546875 741.089844 C 524.578125 758.621094 522.519531 775.933594 520 793.171875 C 518.847656 801.816406 517.277344 810.371094 515.886719 818.960938 C 514.464844 826.996094 512.890625 835 511.359375 843.003906 L 513.597656 846.441406 C 513.175781 846 512.75 845.554688 512.304688 845.132812 C 515.527344 851.714844 518.207031 858.472656 521.113281 865.160156 C 524.050781 871.820312 526.945312 878.492188 530.035156 885.074219 C 536.152344 898.269531 542.507812 911.347656 549.339844 924.195312 C 556.25 936.996094 563.261719 949.761719 571.082031 962.125 C 574.964844 968.34375 578.984375 974.425781 583.550781 980.390625 C 584.125 981.105469 584.78125 981.898438 585.441406 982.628906 L 587.238281 984.582031 C 588.398438 985.886719 589.492188 987.320312 590.636719 988.726562 L 594.976562 994.339844 L 601.371094 1008.109375 C 577.992188 1003.242188 555.035156 996.390625 532.816406 987.625 C 514.179688 980.3125 496.160156 971.503906 478.851562 961.421875 Z M 558.003906 768.90625 C 568.96875 763.433594 579.207031 756.582031 584.355469 746.125 C 587.515625 740.507812 590.882812 734.871094 595.355469 729.820312 C 597.589844 727.3125 600.128906 724.945312 602.972656 722.96875 C 605.792969 720.9375 608.988281 719.570312 611.832031 718.316406 C 613.261719 717.6875 614.628906 717.078125 615.921875 716.386719 C 616.414062 716.15625 617.234375 715.632812 617.875 715.273438 C 618.457031 714.871094 619.019531 714.535156 619.59375 714.097656 C 621.9375 712.359375 624.007812 710.191406 625.933594 707.84375 C 629.730469 703.078125 632.667969 697.472656 635.464844 691.777344 C 634.113281 697.980469 632.121094 704.117188 628.847656 709.835938 C 627.203125 712.6875 625.121094 715.347656 622.667969 717.71875 C 622.0625 718.308594 621.339844 718.894531 620.671875 719.460938 C 619.988281 719.960938 619.539062 720.371094 618.664062 720.945312 C 617.257812 721.882812 615.8125 722.722656 614.429688 723.5 C 608.835938 726.496094 604.539062 729.742188 600.878906 734.5 C 597.214844 739.128906 594.015625 744.359375 591.152344 749.816406 C 588.054688 755.792969 583.203125 761.234375 577.839844 765.171875 C 572.375 769.117188 566.496094 772.160156 560.433594 774.4375 C 548.328125 779.132812 535.867188 781.496094 523.433594 783.96875 C 534.910156 778.433594 546.96875 774.390625 558.003906 768.90625 Z M 332.613281 758.160156 C 333.464844 773.074219 336.175781 787.875 339.898438 802.929688 C 331.742188 789.765625 326.269531 774.742188 323.648438 759.210938 C 322.199219 751.46875 321.683594 743.597656 321.375 735.769531 C 321.183594 728.089844 321.199219 720.429688 321.113281 712.773438 C 321.136719 697.457031 321.667969 682.171875 322.40625 666.886719 C 323.027344 651.585938 324.441406 636.386719 325.164062 620.980469 C 327.425781 628.445312 328.375 636.171875 329.421875 643.8125 C 330.304688 651.480469 331.019531 659.152344 331.464844 666.824219 C 332.402344 682.171875 332.8125 697.503906 332.710938 712.820312 L 332.335938 735.769531 C 332.011719 743.25 332.265625 750.695312 332.613281 758.160156 Z M 1062.109375 599.390625 C 1062.101562 599.382812 1062.101562 599.382812 1062.09375 599.382812 C 1062.03125 599.367188 1062.0625 599.367188 1062.109375 599.390625 Z M 1067.503906 611.898438 C 1066.828125 609.777344 1066.050781 607.691406 1065.28125 605.886719 C 1066.234375 607.792969 1066.988281 609.816406 1067.503906 611.898438 Z M 1230.121094 609.191406 C 1229.996094 608.03125 1229.265625 606.578125 1228.292969 605.769531 C 1226.277344 604.179688 1224.800781 604.25 1223.632812 604.117188 C 1222.433594 604.0625 1221.4375 604.171875 1220.46875 604.300781 C 1213.050781 605.625 1207.09375 608.445312 1200.976562 611.300781 L 1196.503906 613.558594 C 1195.964844 613.835938 1195.019531 614.320312 1194.460938 614.558594 C 1193.859375 614.828125 1193.160156 615.097656 1192.453125 615.375 C 1189.617188 616.433594 1186.574219 617.28125 1183.507812 618.050781 C 1171.15625 621.054688 1158.238281 622.617188 1145.351562 623.632812 C 1132.445312 624.667969 1119.457031 625.109375 1106.46875 624.960938 C 1094.09375 624.816406 1081.707031 624.160156 1069.363281 622.984375 C 1069.5625 621.617188 1069.402344 619.792969 1069.027344 617.773438 L 1069.464844 617.765625 C 1069.488281 612.484375 1068.027344 607.246094 1065.34375 602.648438 C 1064.992188 602.074219 1064.621094 601.511719 1064.183594 600.964844 C 1063.722656 600.457031 1063.390625 599.933594 1062.476562 599.503906 L 1062.46875 599.449219 C 1062.4375 599.195312 1062.429688 598.890625 1062.429688 598.582031 L 1062.46875 596.691406 L 1062.769531 588.941406 C 1062.878906 583.75 1062.746094 578.5 1061.777344 573.285156 C 1060.792969 568.351562 1059.058594 562.984375 1054.691406 559.402344 C 1052.25 551.027344 1049.589844 542.453125 1045.316406 534.550781 C 1041.242188 526.910156 1035.492188 519.765625 1027.816406 515.074219 C 1027.707031 509.671875 1026.09375 504.871094 1024.402344 500.167969 C 1022.496094 495.125 1020.167969 490.296875 1017.496094 485.644531 C 1014.78125 481 1011.835938 476.488281 1007.878906 472.449219 C 1006.972656 471.480469 1005.597656 470.398438 1004.691406 469.691406 C 1003.644531 468.882812 1002.921875 468.167969 1002.007812 467.269531 C 1000.292969 465.507812 998.726562 463.546875 997.25 461.5 C 991.410156 453.222656 986.867188 443.800781 982.585938 434.34375 C 978.335938 424.84375 974.449219 415.132812 970.566406 405.398438 C 966.6875 395.65625 962.84375 385.867188 958.691406 376.15625 C 954.503906 366.453125 950.160156 356.765625 944.453125 347.511719 C 943.007812 345.203125 941.460938 342.925781 939.742188 340.730469 C 938.886719 339.636719 937.925781 338.523438 937.003906 337.515625 L 934.367188 334.625 L 923.832031 322.945312 C 916.800781 315.148438 909.683594 307.382812 902.417969 299.75 C 895.148438 292.113281 887.734375 284.601562 880.125 277.273438 C 876.328125 273.605469 872.4375 270.023438 868.519531 266.472656 C 864.484375 262.859375 860.789062 259.660156 857.230469 255.914062 C 853.632812 252.238281 849.996094 248.234375 845.640625 244.613281 C 841.3125 240.976562 836.226562 237.960938 830.921875 235.917969 C 820.253906 231.820312 809.265625 230.78125 798.566406 230.328125 C 787.746094 229.988281 777.414062 230.375 766.902344 230.367188 L 735.484375 230.464844 C 714.546875 230.414062 693.644531 230.074219 672.785156 229.097656 C 631.109375 227 589.519531 222.953125 549.671875 210.992188 C 543.5625 209.300781 537.558594 209.605469 531.972656 210.351562 C 526.363281 211.167969 521.003906 212.582031 515.808594 214.304688 C 505.433594 217.765625 495.675781 222.386719 486.265625 227.5 C 467.476562 237.816406 450.105469 250.257812 433.753906 263.804688 C 401.082031 290.984375 372.613281 322.914062 348.535156 357.78125 C 324.503906 392.695312 305.226562 430.917969 291.761719 471.105469 C 278.289062 511.277344 270.8125 553.464844 269.914062 595.785156 C 269.453125 616.949219 270.582031 638.101562 273.242188 659.105469 C 276.300781 679.996094 280.859375 700.679688 286.589844 720.960938 C 289.511719 731.09375 292.792969 741.113281 296.480469 750.984375 C 300.15625 760.867188 303.9375 770.699219 308.226562 780.332031 C 316.734375 799.625 326.753906 818.230469 337.777344 836.230469 C 360.09375 872.050781 387.5 905.027344 419.902344 932.53125 C 452.128906 960.199219 488.980469 982.503906 528.3125 998.789062 C 567.6875 1015.058594 609.8125 1024.585938 652.265625 1027.332031 C 694.742188 1029.976562 737.464844 1026.015625 778.652344 1016.34375 C 799.242188 1011.414062 819.457031 1005.148438 839.183594 997.714844 C 858.851562 990.085938 878.085938 981.445312 896.609375 971.511719 L 896.101562 970.464844 C 876.851562 978.785156 857.34375 986.410156 837.425781 992.675781 C 817.566406 999.136719 797.359375 1004.386719 776.925781 1008.300781 C 763.835938 1010.890625 750.648438 1012.914062 737.414062 1014.367188 C 724.738281 988.585938 707.960938 945.507812 700.660156 912.953125 C 695.902344 891.710938 671.046875 811.304688 668.421875 790.621094 C 665.332031 766.21875 657.761719 720.667969 651.128906 686.015625 C 634.894531 677.484375 620.472656 666.027344 607.542969 653.449219 C 603.609375 649.609375 599.8125 645.644531 596.136719 641.585938 L 590.710938 635.464844 C 588.976562 633.503906 587.101562 631.175781 585.738281 629.960938 C 581.289062 625.90625 577.53125 620.886719 574.851562 615.519531 C 572.136719 610.152344 570.484375 604.578125 568.917969 599.566406 C 567.363281 594.539062 565.742188 590.132812 563.152344 587.011719 C 560.625 583.875 556.925781 581.726562 552.445312 580.296875 C 550.242188 579.582031 547.835938 579.046875 545.453125 578.652344 L 543.585938 578.359375 L 542.5625 578.214844 C 542.046875 578.128906 541.527344 578.046875 541.078125 577.929688 C 539.21875 577.476562 537.707031 576.871094 536.261719 576.230469 C 530.621094 573.601562 526.070312 570.394531 521.558594 567.082031 C 512.644531 560.390625 504.511719 553.050781 496.71875 545.339844 C 488.964844 537.597656 481.578125 529.476562 474.898438 520.621094 C 471.566406 516.175781 468.382812 511.585938 465.601562 506.535156 C 464.210938 504.011719 462.925781 501.359375 461.859375 498.460938 C 460.789062 495.410156 460.214844 492.664062 459.660156 489.839844 C 458.589844 484.183594 458.207031 478.640625 457.632812 473.464844 C 457.070312 468.273438 456.222656 463.324219 454.855469 458.433594 C 452.167969 448.652344 447.601562 439.234375 442.5 430.0625 C 437.371094 420.890625 431.5625 411.964844 425.5 403.253906 C 424.015625 401.085938 422.355469 398.910156 420.800781 396.363281 C 419.289062 393.871094 417.949219 391.25 416.867188 388.496094 C 414.675781 383 413.625 376.941406 413.945312 370.992188 C 414.585938 358.925781 420.441406 348.300781 427.402344 339.667969 C 434.46875 330.949219 442.867188 323.707031 451.675781 317.230469 C 460.503906 310.789062 469.796875 305.09375 479.375 299.996094 C 498.570312 289.890625 518.667969 281.765625 539.226562 275.222656 C 559.769531 268.863281 580.921875 263.359375 602.496094 263.019531 C 591.75 263.613281 581.222656 265.894531 570.859375 268.570312 C 560.492188 271.246094 550.273438 274.476562 540.203125 278.113281 C 520.097656 285.417969 500.539062 294.273438 482.109375 304.9375 C 472.902344 310.265625 463.925781 315.980469 455.570312 322.4375 C 447.242188 328.871094 439.417969 336.015625 433.136719 344.179688 C 426.90625 352.277344 422.253906 361.6875 422.023438 371.320312 C 421.886719 376.113281 422.832031 380.863281 424.722656 385.308594 C 425.667969 387.527344 426.820312 389.683594 428.15625 391.75 C 429.441406 393.765625 431.085938 395.839844 432.699219 398.0625 C 439.125 406.835938 445.289062 415.785156 450.882812 425.242188 C 456.433594 434.699219 461.414062 444.734375 464.609375 455.65625 C 466.207031 461.101562 467.246094 466.769531 467.898438 472.25 C 468.574219 477.738281 469.011719 482.9375 470.011719 487.835938 C 470.511719 490.28125 471.113281 492.792969 471.855469 494.800781 C 472.671875 496.9375 473.746094 499.128906 474.984375 501.296875 C 477.445312 505.632812 480.433594 509.863281 483.601562 513.96875 C 496.496094 530.269531 511.765625 545.46875 528.304688 557.976562 C 532.433594 561.015625 536.792969 563.945312 540.917969 565.820312 C 543.214844 566.859375 543.855469 566.859375 547.257812 567.359375 C 550.179688 567.828125 553.023438 568.449219 555.9375 569.371094 C 561.667969 571.132812 567.777344 574.402344 572.058594 579.683594 C 576.371094 584.917969 578.332031 590.925781 579.984375 596.074219 C 581.605469 601.320312 583.027344 606.09375 585.171875 610.34375 C 587.277344 614.597656 590.050781 618.328125 593.527344 621.53125 C 596.117188 623.976562 597.53125 625.921875 599.367188 627.96875 L 604.601562 633.933594 C 608.128906 637.855469 611.738281 641.667969 615.484375 645.351562 C 630.398438 660.042969 647.332031 672.808594 666.222656 681.019531 C 675.644531 685.117188 685.558594 687.976562 695.671875 689.167969 C 696.933594 689.339844 698.203125 689.4375 699.46875 689.554688 C 700.675781 689.621094 702.273438 689.769531 702.613281 689.707031 C 703.6875 689.609375 704.855469 689.039062 706.140625 687.632812 C 708.699219 684.816406 710.644531 680.027344 712.066406 675.277344 C 714.933594 665.558594 716.339844 654.992188 717.554688 644.484375 C 718.746094 633.941406 719.574219 623.246094 720.320312 612.574219 C 723.148438 569.828125 724.324219 526.894531 722.789062 484.074219 C 722.101562 462.671875 720.710938 441.257812 717.667969 420.058594 C 716.117188 409.472656 714.148438 398.929688 711.367188 388.597656 C 708.59375 378.289062 705.101562 368.039062 699.4375 358.882812 C 705.601562 367.722656 709.691406 377.871094 713.042969 388.105469 C 716.300781 398.402344 718.699219 408.949219 720.6875 419.558594 C 724.625 440.789062 726.898438 462.277344 728.460938 483.78125 C 730.605469 517.898438 730.910156 552.066406 730.082031 586.21875 L 737.621094 588.242188 C 736.730469 588.109375 735.84375 587.980469 734.953125 587.824219 C 742.523438 591.792969 750.953125 593.5 758.976562 595.777344 C 767.085938 597.8125 775.125 599.867188 782.917969 602.226562 C 790.632812 604.734375 798.328125 607.292969 804.746094 611.285156 C 806.351562 612.261719 807.902344 613.25 809.304688 614.359375 C 810.015625 614.90625 810.671875 615.488281 811.324219 616.074219 L 813.792969 618.289062 C 817.125 621.164062 820.554688 623.839844 824.105469 626.332031 C 831.238281 631.242188 838.714844 635.59375 846.625 639.171875 C 854.546875 642.652344 862.777344 645.75 871.625 647.082031 C 876.035156 647.726562 880.585938 648.128906 885.203125 647.527344 C 889.777344 646.957031 894.527344 645.496094 898.386719 642.554688 C 902.21875 639.601562 904.808594 635.394531 905.957031 631.105469 C 907.160156 626.816406 907.292969 622.46875 906.871094 618.273438 C 906.929688 616.640625 906.953125 615.1875 906.960938 613.890625 C 905.386719 613.082031 903.839844 612.28125 902.359375 611.507812 L 897.632812 607.363281 C 897.625 607.363281 897.625 607.363281 897.617188 607.363281 C 897.609375 607.363281 897.601562 607.363281 897.59375 607.363281 C 894.074219 607.261719 890.621094 606.878906 887.0625 606.210938 L 885.6875 605.925781 L 884.058594 605.53125 C 882.976562 605.242188 881.914062 604.910156 880.886719 604.53125 C 878.824219 603.78125 876.859375 602.894531 875.011719 601.855469 C 860.402344 593.253906 851.128906 580.707031 842.144531 568.726562 C 837.648438 562.707031 833.480469 556.53125 828.953125 550.757812 C 826.742188 547.820312 824.382812 545.039062 821.816406 542.46875 C 819.230469 539.949219 816.382812 537.609375 812.738281 536.511719 C 816.589844 536.320312 820.414062 537.988281 823.742188 539.941406 C 827.117188 541.925781 830.121094 544.398438 833.050781 546.882812 C 838.777344 552.003906 844.003906 557.5 849.058594 563 C 854.222656 568.402344 859.066406 573.96875 864.300781 578.929688 C 869.457031 583.910156 874.789062 588.648438 880.570312 591.691406 C 882 592.445312 883.429688 593.152344 884.875 593.691406 C 885.605469 593.96875 886.328125 594.199219 887.050781 594.40625 L 888.140625 594.683594 L 889.5 594.984375 C 892.714844 595.707031 896.1875 596.183594 899.554688 596.367188 C 906.363281 596.898438 913.171875 595.761719 920.234375 594.230469 C 927.257812 592.617188 934.605469 590.277344 942.554688 589.523438 C 946.511719 589.246094 950.585938 589.394531 954.417969 590.371094 C 958.261719 591.332031 961.820312 592.976562 964.933594 595.160156 C 962.304688 594.414062 959.691406 593.945312 957.101562 593.738281 C 956.941406 593.722656 956.777344 593.699219 956.617188 593.691406 C 956.527344 593.683594 956.441406 593.683594 956.347656 593.683594 C 956.15625 593.667969 955.964844 593.667969 955.773438 593.660156 C 978.675781 605.457031 1003.269531 613.820312 1028.378906 619.734375 C 1053.921875 625.675781 1080.070312 629.050781 1106.324219 630.257812 C 1132.585938 631.320312 1159 630.765625 1185.222656 625.222656 C 1188.503906 624.460938 1191.769531 623.570312 1195.058594 622.371094 C 1195.882812 622.0625 1196.703125 621.746094 1197.59375 621.347656 C 1198.535156 620.941406 1199.046875 620.679688 1199.960938 620.21875 L 1204.242188 618.089844 C 1209.808594 615.480469 1215.78125 612.921875 1221.191406 611.96875 C 1219.808594 613.820312 1217.902344 615.773438 1215.972656 617.582031 C 1211.359375 621.800781 1206.304688 625.953125 1201.152344 629.351562 C 1190.640625 636.1875 1178.644531 640.871094 1166.363281 644.507812 C 1154.035156 648.097656 1141.292969 650.503906 1128.488281 652.503906 C 1115.660156 654.457031 1102.71875 655.816406 1089.730469 656.878906 C 1083.257812 657.367188 1076.695312 657.929688 1070.285156 658.152344 C 1063.835938 658.335938 1057.359375 658.136719 1050.886719 657.667969 C 1033.578125 656.308594 1016.402344 653.164062 999.496094 648.851562 C 991.117188 646.710938 982.808594 644.3125 974.59375 641.667969 C 965.410156 638.695312 956.316406 635.441406 947.324219 631.917969 C 933.601562 626.539062 920.128906 620.488281 906.960938 613.835938 C 905.433594 613.058594 903.886719 612.296875 902.359375 611.507812 C 903.886719 612.304688 905.433594 613.082031 906.960938 613.875 C 907.882812 614.34375 908.796875 614.828125 909.730469 615.289062 C 911.472656 616.164062 913.289062 617.058594 915.132812 617.949219 C 925.738281 623.132812 936.519531 627.953125 947.464844 632.398438 C 957.425781 668.308594 981.371094 774.757812 956.472656 820.144531 C 931.109375 866.390625 891.082031 856.242188 882.628906 851.730469 C 874.175781 847.214844 867.964844 837.636719 874.175781 828.042969 C 880.378906 818.460938 874.175781 806.621094 871.363281 804.929688 C 868.542969 803.230469 867.414062 798.15625 872.484375 794.21875 C 877.558594 790.257812 879.25 781.242188 867.972656 780.109375 C 856.707031 778.988281 822.320312 795.339844 818.933594 817.332031 C 815.550781 839.328125 824.574219 890.074219 852.757812 903.613281 C 880.9375 917.136719 914.761719 930.117188 966.617188 911.5 C 1018.476562 892.886719 1039.328125 855.113281 1051.171875 825.789062 C 1062.878906 796.800781 1080.851562 749.863281 1074.71875 662.144531 C 1079.855469 662.035156 1084.910156 661.78125 1090.039062 661.566406 C 1103.117188 660.9375 1116.214844 660.007812 1129.292969 658.46875 C 1142.359375 656.945312 1155.410156 654.722656 1168.253906 651.257812 C 1181.0625 647.796875 1193.792969 643.082031 1205.257812 635.6875 C 1211.039062 631.90625 1216.125 627.769531 1221.191406 623.214844 C 1223.6875 620.847656 1226.148438 618.558594 1228.382812 615.203125 C 1228.929688 614.328125 1229.484375 613.382812 1229.898438 611.976562 C 1230.089844 611.253906 1230.265625 610.367188 1230.121094 609.191406"/>
  </g>
  <path fill="url(#elephantGradient)" d="M 1200.585938 598.789062 C 1200.5625 598.75 1200.53125 598.703125 1200.515625 598.644531 C 1200.539062 598.605469 1200.570312 598.683594 1200.585938 598.789062 Z M 1072.023438 607.5625 C 1084.648438 610.90625 1097.570312 612.953125 1110.558594 614.191406 C 1123.5625 615.457031 1136.671875 615.757812 1149.824219 614.9375 C 1162.878906 613.78125 1176.359375 612.230469 1188.6875 605.492188 C 1191.863281 603.59375 1194.097656 601.757812 1196.789062 600.34375 C 1198.050781 599.652344 1199.480469 599.042969 1200.363281 598.9375 C 1200.507812 598.9375 1200.578125 598.929688 1200.617188 598.914062 C 1200.640625 599.121094 1200.640625 599.421875 1200.585938 599.71875 C 1200.171875 602.320312 1198.457031 605.203125 1196.65625 607.699219 C 1194.78125 610.214844 1192.601562 612.597656 1189.824219 614.328125 C 1192.960938 613.335938 1195.796875 611.40625 1198.257812 609.136719 C 1200.683594 606.785156 1202.929688 604.285156 1204.273438 600.613281 C 1204.535156 599.652344 1204.867188 598.527344 1204.273438 596.921875 C 1203.96875 596.128906 1203.230469 595.34375 1202.460938 594.992188 C 1201.699219 594.621094 1200.984375 594.515625 1200.386719 594.492188 C 1198.011719 594.46875 1196.367188 595.128906 1194.683594 595.730469 C 1191.425781 596.9375 1188.417969 599.003906 1185.882812 600.148438 C 1180.417969 602.578125 1174.332031 604.109375 1168.144531 605.101562 C 1161.957031 606.164062 1155.640625 606.839844 1149.285156 607.214844 C 1136.589844 608.167969 1123.738281 608.199219 1110.863281 608.175781 L 1072.023438 607.5625"/>
  <path fill="url(#elephantGradient)" d="M 771.152344 178.515625 C 801.488281 185.542969 831.144531 195.238281 859.1875 208.484375 C 887.308594 221.476562 914.085938 237.394531 938.632812 256.253906 C 987.96875 293.628906 1029.445312 341.429688 1059.328125 396.117188 C 1089.292969 450.800781 1107.53125 512.0625 1113.609375 575.578125 C 1117.25 511.785156 1103.671875 446.417969 1075.449219 387.84375 C 1047.351562 329.179688 1004.859375 277.097656 952.628906 237.738281 C 926.429688 218.203125 898.109375 201.464844 868.144531 188.472656 C 838.117188 175.707031 806.742188 165.996094 774.625 160.800781 C 710.582031 149.925781 644.082031 154.5625 583.695312 175.429688 C 646.425781 163.945312 710.328125 164.882812 771.152344 178.515625"/>
</svg>
